<?xml version="1.0" encoding="utf-8"?>
<!-- Generator: Adobe Illustrator 19.0.0, SVG Export Plug-In . SVG Version: 6.00 Build 0)  -->
<svg version="1.1" id="Layer_1" xmlns="http://www.w3.org/2000/svg" xmlns:xlink="http://www.w3.org/1999/xlink" x="0px" y="0px"
	 viewBox="120 -120 1200 800" style="enable-background:new 120 -120 1200 800;" xml:space="preserve">
<style type="text/css">
	.st0{fill:#DCDBDB;}
	.st1{fill:none;stroke:#FFFFFF;stroke-width:20;}
	.st2{fill:#BCBCBC;}
	.st3{fill:#ECC6BC;}
	.st4{fill:#A5D5A1;}
	.st5{fill:#636363;}
</style>
<path class="st0" d="M1320-3.2H120v-119.9h1200V-3.2z"/>
<path class="st1" d="M1320-63.1H120"/>
<path class="st2" d="M1320,576.6V680H120V576.6H1320z"/>
<path class="st3" d="M1320,533.8h-127V76.7h127V533.8z"/>
<path class="st2" d="M1320,552.1h-60.9v-12.5h60.9V552.1z"/>
<circle class="st4" cx="1080.6" cy="47.9" r="51.1"/>
<path class="st0" d="M218.4,576.6H120V-3.2h98.4V576.6z"/>
<path class="st1" d="M185.2,576.6V-57.1"/>
<path class="st2" d="M1253.5,552.1h-60.9v-12.5h60.9V552.1z"/>
<path class="st2" d="M1320,568.1h-60.9v-12.5h60.9V568.1z"/>
<path class="st2" d="M1253.5,568.1h-60.9v-12.5h60.9V568.1z"/>
<ellipse class="st4" cx="144.4" cy="533.8" rx="21.4" ry="42.8"/>
<circle class="st4" cx="1278" cy="36.8" r="30"/>
<circle class="st4" cx="1204.2" cy="36.8" r="30"/>
<circle class="st4" cx="1101.7" cy="187.9" r="30"/>
<ellipse class="st4" cx="148.8" cy="414.5" rx="23.7" ry="27.1"/>
<path class="st0" d="M1131.7,576.6V-3.2h42.5v579.8H1131.7z"/>
<circle class="st4" cx="148.9" cy="305.9" r="22.7"/>
<circle class="st4" cx="1101.7" cy="444.5" r="30"/>
<g>
	<g>
		<path class="st5" d="M138.6,2.3c0.2,0,0.3,0,0.6,0c1,0,1.8-0.2,2.4-0.8c0.4-0.4,0.7-1,0.7-1.7s-0.3-1.3-0.8-1.7
			c-0.5-0.4-1.2-0.6-2.2-0.6s-1.7,0.1-2.2,0.2v7.2h1.6L138.6,2.3L138.6,2.3z M138.6-1.1c0.1,0,0.3-0.1,0.7-0.1
			c0.8,0,1.3,0.4,1.3,1.1s-0.5,1.2-1.4,1.2c-0.2,0-0.4,0-0.6,0V-1.1L138.6-1.1z"/>
		<path class="st5" d="M135.5,7.2h8.1c1,0,1.9-0.8,1.9-1.9v-8.1c0-1-0.8-1.9-1.9-1.9h-8.1c-1,0-1.9,0.8-1.9,1.9v8.1
			C133.7,6.4,134.5,7.2,135.5,7.2z M135.1-2.7c0-0.3,0.2-0.5,0.5-0.5h7.9c0.3,0,0.5,0.2,0.5,0.5v7.9c0,0.3-0.2,0.5-0.5,0.5h-7.9
			c-0.3,0-0.5-0.2-0.5-0.5V-2.7z"/>
		<path class="st5" d="M141.2,17c-2.3,0-4.1,2.4-3,4.8c0.3,0.6,0.8,1.2,1.5,1.5c2.4,1.1,4.8-0.7,4.8-3C144.5,18.4,143,17,141.2,17z
			 M141.2,21.2c-0.5,0-1-0.4-1-1c0-0.5,0.4-1,1-1c0.5,0,1,0.4,1,1C142.2,20.8,141.8,21.2,141.2,21.2z"/>
		<path class="st5" d="M165,17.5l-0.5-4.3c-0.1-0.8-0.8-1.4-1.7-1.4l-1.2,0.1L158,8.6c-0.3-0.3-0.8-0.5-1.3-0.5h-7.4
			c-1.7,0-3.3,0.6-4.5,1.6l-4.1,3.3l-5.5,1.4c-0.7,0.2-1.2,0.8-1.2,1.5v1.6c-0.2,0-0.4,0.2-0.4,0.4V20c0,0.3,0.2,0.5,0.5,0.5l3.1,0
			c0,0,0,0,0,0c-0.2-2.7,2-4.8,4.7-4.4c2,0.3,3.5,2.1,3.5,4.2v0.3l8.6,0c0,0,0,0,0,0c-0.2-2.7,2-4.8,4.7-4.4c2,0.3,3.5,2.1,3.5,4.2
			v0.3h2.9c0.3,0,0.5-0.2,0.5-0.5v-2C165.5,17.8,165.3,17.5,165,17.5L165,17.5z M154,12.2l-10.3,0.5l2-1.6c1.1-0.9,2.4-1.3,3.8-1.3
			h4.5V12.2z M155.7,12.1V9.8h0.7c0.2,0,0.5,0.1,0.6,0.2l2.1,1.9C159.1,12,155.7,12.1,155.7,12.1z"/>
		<path class="st5" d="M158,17c-2.3,0-4.1,2.4-3,4.8c0.3,0.6,0.8,1.2,1.5,1.5c2.4,1.1,4.8-0.7,4.8-3C161.2,18.4,159.8,17,158,17z
			 M158,21.2c-0.5,0-1-0.4-1-1c0-0.5,0.4-1,1-1c0.5,0,1,0.4,1,1C159,20.8,158.5,21.2,158,21.2z"/>
	</g>
	<path class="st5" d="M1103.4,61.9h-5.8v-3.6h1.1c0.4,0,0.7-0.5,0.7-1.1s-0.3-1.1-0.7-1.1h-3.7c-0.4,0-0.7,0.5-0.7,1.1
		s0.3,1.1,0.7,1.1h1.1v3.6h-11.6v-8.2h5.8c0.3,0,0.6-0.3,0.7-0.7c0.1-0.5,0.1-1-0.1-1.3l-3.7-6.5h1.7c0.3,0,0.6-0.3,0.7-0.7
		c0.1-0.5,0.1-1-0.1-1.3l-3.4-6.1h1.7c0.3,0,0.6-0.3,0.7-0.7c0.1-0.5,0.1-1-0.1-1.3l-4.7-8.2c-0.3-0.5-0.8-0.5-1.1,0l-4.7,8.2
		c-0.2,0.3-0.2,0.8-0.1,1.3c0.1,0.5,0.4,0.7,0.7,0.7h1.7l-3.4,6.1c-0.2,0.3-0.2,0.8-0.1,1.3c0.1,0.5,0.4,0.7,0.7,0.7h1.7l-3.7,6.5
		c-0.2,0.3-0.2,0.8-0.1,1.3c0.1,0.5,0.4,0.7,0.7,0.7h5.8v8.2h-7.3c-0.8,0-1.5,1.1-1.5,2.5c0,1.3,0.7,2.5,1.5,2.5h29.1
		c0.8,0,1.5-1.1,1.5-2.5C1104.9,63,1104.2,61.9,1103.4,61.9L1103.4,61.9z"/>
</g>
<circle class="st4" cx="148.9" cy="217.9" r="22.7"/>
<circle class="st4" cx="149.6" cy="112.4" r="22.7"/>
<path class="st5" d="M159.8,549H154v-3.6h1.1c0.4,0,0.7-0.5,0.7-1.1s-0.3-1.1-0.7-1.1h-3.7c-0.4,0-0.7,0.5-0.7,1.1s0.3,1.1,0.7,1.1
	h1.1v3.6h-11.6v-8.2h5.8c0.3,0,0.6-0.3,0.7-0.7c0.1-0.5,0.1-1-0.1-1.3l-3.7-6.6h1.7c0.3,0,0.6-0.3,0.7-0.7c0.1-0.5,0.1-1-0.1-1.3
	l-3.4-6.1h1.7c0.3,0,0.6-0.3,0.7-0.7c0.1-0.5,0.1-1-0.1-1.3l-4.7-8.2c-0.3-0.5-0.8-0.5-1.1,0l-4.7,8.2c-0.2,0.3-0.2,0.8-0.1,1.3
	c0.1,0.5,0.4,0.7,0.7,0.7h1.7l-3.4,6.1c-0.2,0.3-0.2,0.8-0.1,1.3c0.1,0.5,0.4,0.7,0.7,0.7h1.7l-3.7,6.6c-0.2,0.3-0.2,0.8-0.1,1.3
	c0.1,0.5,0.4,0.7,0.7,0.7h5.8v8.2H131c-0.8,0-1.5,1.1-1.5,2.5c0,1.3,0.7,2.5,1.5,2.5h29.1c0.8,0,1.5-1.1,1.5-2.5
	C161.3,550.1,160.6,549,159.8,549L159.8,549z"/>
</svg>
